# xmcd CD database file
#
# Track frame offsets:
#	150
#	13308
#	21081
#	34174
#	49878
#	62797
#	73530
#	97460
#	113688
#	132655
#	157874
#	175761
#
# Disc length: 2539 seconds
#
# Revision: 0
# Processed by: cddbd v1.5.1PL0 Copyright (c) Steve Scherf et al.
# Submitted via: CDex 1.51
#
DISCID=a809e90c
DTITLE=100 Haur Kanta - 100 Haur Kanta (8 of 8)
DYEAR=2003
DGENRE=Euskal Haur Musika
TTITLE0=Alaken
TTITLE1=Lo Dago
TTITLE2=Pozkarioz Kanta Zagun
TTITLE3=Hator, Hator, Mutil
TTITLE4=Gabeko Izar
TTITLE5=Mirentxu, Maite Eta Amaia
TTITLE6=Mesias Sarritan
TTITLE7=Oporrak, Oporrak!
TTITLE8=Errege Baltaxarren Balada
TTITLE9=Gabon Ilunabarra and Olentzaro 2
TTITLE10=Olentz-ero
TTITLE11=Olentzero
EXTD=YEAR: 2003
EXTT0=
EXTT1=
EXTT2=
EXTT3=
EXTT4=
EXTT5=
EXTT6=
EXTT7=
EXTT8=
EXTT9=
EXTT10=
EXTT11=
PLAYORDER=
